<?xml version="1.0" standalone="no"?>
<!DOCTYPE svg PUBLIC "-//W3C//DTD SVG 20010904//EN"
 "http://www.w3.org/TR/2001/REC-SVG-20010904/DTD/svg10.dtd">
<svg version="1.0" xmlns="http://www.w3.org/2000/svg"
 width="580.000000pt" height="127.000000pt" viewBox="0 0 580.000000 127.000000"
 preserveAspectRatio="xMidYMid meet">

<g transform="translate(0.000000,127.000000) scale(0.100000,-0.100000)"
fill="#000000" stroke="none">
<path d="M580 1129 c-244 -26 -430 -240 -430 -493 0 -145 39 -242 136 -346
301 -319 828 -129 860 310 11 145 -36 270 -143 381 -116 120 -248 167 -423
148z m215 -148 c150 -66 236 -218 221 -386 -12 -129 -89 -243 -203 -301 -53
-26 -67 -29 -163 -29 -93 0 -112 3 -161 26 -76 36 -129 86 -170 161 -33 61
-34 66 -34 178 0 105 2 120 27 170 47 96 142 174 245 200 60 15 184 5 238 -19z"/>
<path d="M5090 1129 c-244 -26 -430 -240 -430 -493 0 -145 39 -242 136 -346
301 -319 828 -129 860 310 11 145 -36 270 -143 381 -116 120 -248 167 -423
148z m215 -148 c150 -66 236 -218 221 -386 -12 -129 -89 -243 -203 -301 -53
-26 -67 -29 -163 -29 -93 0 -112 3 -161 26 -76 36 -129 86 -170 161 -33 61
-34 66 -34 178 0 105 2 120 27 170 47 96 142 174 245 200 60 15 184 5 238 -19z"/>
<path d="M1307 1113 c-4 -3 -7 -222 -7 -485 l0 -478 65 0 65 0 0 185 0 186
116 -3 116 -3 106 -182 107 -183 72 0 72 0 -78 132 c-43 73 -94 160 -114 193
l-35 59 48 28 c88 50 140 135 147 238 8 107 -33 190 -130 264 -58 44 -131 56
-347 56 -108 0 -200 -3 -203 -7z m463 -138 c113 -58 120 -237 13 -310 -36 -24
-43 -25 -195 -25 l-158 0 0 175 0 175 155 0 c119 0 163 -4 185 -15z"/>
<path d="M2148 1114 c-5 -4 -8 -223 -8 -486 l0 -478 223 0 c122 0 242 5 267
11 142 33 270 150 321 296 26 72 35 210 20 284 -34 160 -149 296 -299 351 -50
19 -84 22 -287 26 -126 2 -233 0 -237 -4z m517 -153 c215 -101 260 -427 83
-598 -76 -74 -119 -87 -305 -91 l-163 -4 0 361 0 361 163 0 c157 0 164 -1 222
-29z"/>
<path d="M3140 635 l0 -485 290 0 290 0 0 60 0 60 -225 0 -225 0 0 155 0 155
205 0 206 0 -3 58 -3 57 -202 3 -203 2 0 145 0 145 218 2 217 3 0 60 0 60
-282 3 -283 2 0 -485z"/>
<path d="M3870 636 l0 -486 65 0 65 0 0 185 0 185 113 0 112 0 99 -170 c55
-94 104 -178 110 -186 9 -11 28 -14 79 -12 l68 3 -112 189 c-85 145 -108 191
-97 197 7 5 17 9 21 9 22 0 117 106 138 153 64 148 -6 320 -160 391 -42 19
-66 21 -273 24 l-228 4 0 -486z m494 314 c75 -70 83 -174 20 -250 -46 -54 -68
-60 -234 -60 l-150 0 0 175 0 175 160 0 160 0 44 -40z"/>
</g>
</svg>
